<svg width="26" height="26" viewBox="0 0 26 26" fill="none" xmlns="http://www.w3.org/2000/svg">
<path d="M8.66621 18.6333H7.79954C7.56024 18.6333 7.36621 18.8273 7.36621 19.0666C7.36621 19.3059 7.56024 19.5 7.79954 19.5H8.66621C8.90552 19.5 9.09954 19.3059 9.09954 19.0666C9.09954 18.8273 8.90552 18.6333 8.66621 18.6333Z" fill="#006EB7"/>
<path d="M20.8001 18.6333H10.4001C10.1608 18.6333 9.9668 18.8273 9.9668 19.0666C9.9668 19.3059 10.1608 19.5 10.4001 19.5H20.8001C21.0394 19.5 21.2335 19.3059 21.2335 19.0666C21.2335 18.8273 21.0394 18.6333 20.8001 18.6333Z" fill="#006EB7"/>
<path d="M8.66621 16.0332H7.79954C7.56024 16.0332 7.36621 16.2272 7.36621 16.4665C7.36621 16.7058 7.56024 16.8999 7.79954 16.8999H8.66621C8.90552 16.8999 9.09954 16.7058 9.09954 16.4665C9.09954 16.2272 8.90552 16.0332 8.66621 16.0332Z" fill="#006EB7"/>
<path d="M20.8001 16.0332H10.4001C10.1608 16.0332 9.9668 16.2272 9.9668 16.4665C9.9668 16.7058 10.1608 16.8999 10.4001 16.8999H20.8001C21.0394 16.8999 21.2335 16.7058 21.2335 16.4665C21.2335 16.2272 21.0394 16.0332 20.8001 16.0332Z" fill="#006EB7"/>
<path d="M8.66621 13.4333H7.79954C7.56024 13.4333 7.36621 13.6274 7.36621 13.8667C7.36621 14.106 7.56024 14.3 7.79954 14.3H8.66621C8.90552 14.3 9.09954 14.106 9.09954 13.8667C9.09954 13.6274 8.90552 13.4333 8.66621 13.4333Z" fill="#006EB7"/>
<path d="M20.8001 13.4333H10.4001C10.1608 13.4333 9.9668 13.6274 9.9668 13.8667C9.9668 14.106 10.1608 14.3 10.4001 14.3H20.8001C21.0394 14.3 21.2335 14.106 21.2335 13.8667C21.2335 13.6274 21.0394 13.4333 20.8001 13.4333Z" fill="#006EB7"/>
<path d="M8.66621 10.8333H7.79954C7.56024 10.8333 7.36621 11.0273 7.36621 11.2666C7.36621 11.5059 7.56024 11.6999 7.79954 11.6999H8.66621C8.90552 11.6999 9.09954 11.5059 9.09954 11.2666C9.09954 11.0273 8.90552 10.8333 8.66621 10.8333Z" fill="#006EB7"/>
<path d="M20.8001 10.8333H10.4001C10.1608 10.8333 9.9668 11.0273 9.9668 11.2666C9.9668 11.5059 10.1608 11.6999 10.4001 11.6999H20.8001C21.0394 11.6999 21.2335 11.5059 21.2335 11.2666C21.2335 11.0273 21.0394 10.8333 20.8001 10.8333Z" fill="#006EB7"/>
<path d="M8.66621 8.2334H7.79954C7.56024 8.2334 7.36621 8.42742 7.36621 8.66673C7.36621 8.90604 7.56024 9.10006 7.79954 9.10006H8.66621C8.90552 9.10006 9.09954 8.90604 9.09954 8.66673C9.09954 8.42742 8.90552 8.2334 8.66621 8.2334Z" fill="#006EB7"/>
<path d="M20.8001 8.2334H10.4001C10.1608 8.2334 9.9668 8.42742 9.9668 8.66673C9.9668 8.90604 10.1608 9.10006 10.4001 9.10006H20.8001C21.0394 9.10006 21.2335 8.90604 21.2335 8.66673C21.2335 8.42742 21.0394 8.2334 20.8001 8.2334Z" fill="#006EB7"/>
<path d="M23.828 6.4727C23.8259 6.43473 23.8184 6.39725 23.8059 6.36133C23.8012 6.34747 23.7977 6.33403 23.7916 6.3206C23.7706 6.27348 23.7412 6.23047 23.705 6.19363L17.6383 0.126967C17.6015 0.0907292 17.5585 0.0613708 17.5113 0.0403C17.4979 0.0342333 17.4845 0.0307667 17.471 0.026C17.4348 0.0135417 17.397 0.00595833 17.3588 0.00346667C17.3514 0.00476667 17.3432 0 17.3337 0H5.20033C4.96102 0 4.76699 0.194025 4.76699 0.433333V1.73333H2.60033C2.36102 1.73333 2.16699 1.92736 2.16699 2.16667V25.5667C2.16699 25.806 2.36102 26 2.60033 26H20.8003C21.0396 26 21.2337 25.806 21.2337 25.5667V23.4H23.4003C23.6396 23.4 23.8337 23.206 23.8337 22.9667V6.5C23.8337 6.49047 23.8289 6.48223 23.828 6.4727ZM17.767 1.4794L22.3543 6.06667H17.767V1.4794ZM20.367 25.1333H3.03366V2.6H4.76699V22.9667C4.76699 23.206 4.96102 23.4 5.20033 23.4H20.367V25.1333ZM22.967 22.5333H5.63366V0.866667H16.9003V6.5C16.9003 6.73931 17.0944 6.93333 17.3337 6.93333H22.967V22.5333Z" fill="#006EB7"/>
<path d="M10.3995 3.8999H7.79954C7.56024 3.8999 7.36621 4.09393 7.36621 4.33324V6.93324C7.36621 7.17254 7.56024 7.36657 7.79954 7.36657H10.3995C10.6389 7.36657 10.8329 7.17254 10.8329 6.93324V4.33324C10.8329 4.09393 10.6389 3.8999 10.3995 3.8999ZM9.96621 6.4999H8.23288V4.76657H9.96621V6.4999Z" fill="#006EB7"/>
</svg>
