<svg width="96" height="96" viewBox="0 0 96 96" fill="none" xmlns="http://www.w3.org/2000/svg">
<g clip-path="url(#clip0)">
<path d="M81.08 76H27.012C24.384 76 21.892 74.852 20.18 72.856C18.464 70.856 17.716 68.216 18.12 65.616L24.036 27.616C24.732 23.2 28.468 20 32.932 20H87C89.628 20 92.12 21.148 93.832 23.144C95.548 25.144 96.296 27.784 95.892 30.384L89.976 68.384C89.28 72.8 85.544 76 81.08 76ZM32.932 26C31.444 26 30.196 27.068 29.968 28.54L24.052 66.54C23.916 67.42 24.156 68.28 24.736 68.956C25.316 69.628 26.12 70 27.012 70H81.08C82.568 70 83.816 68.932 84.044 67.46L89.96 29.46C90.096 28.58 89.856 27.72 89.276 27.044C88.696 26.372 87.892 26 87 26H32.932Z" fill="#006EB7"/>
<path d="M57.2963 53.904C55.3683 53.904 53.4403 53.392 51.7123 52.376L24.5843 36.384C23.1563 35.544 22.6803 33.704 23.5203 32.276C24.3643 30.852 26.1923 30.368 27.6283 31.216L54.7603 47.208C56.2283 48.072 58.0083 48.128 59.5323 47.372L90.9243 31.676C92.4043 30.936 94.2043 31.536 94.9483 33.016C95.6923 34.5 95.0883 36.3 93.6043 37.04L62.2123 52.736C60.6603 53.516 58.9763 53.904 57.2963 53.904Z" fill="#006EB7"/>
<path d="M17 34H3C1.344 34 0 32.656 0 31C0 29.344 1.344 28 3 28H17C18.656 28 20 29.344 20 31C20 32.656 18.656 34 17 34Z" fill="#006EB7"/>
<path d="M13 50H3C1.344 50 0 48.656 0 47C0 45.344 1.344 44 3 44H13C14.656 44 16 45.344 16 47C16 48.656 14.656 50 13 50Z" fill="#006EB7"/>
<path d="M9 66H3C1.344 66 0 64.656 0 63C0 61.344 1.344 60 3 60H9C10.656 60 12 61.344 12 63C12 64.656 10.656 66 9 66Z" fill="#006EB7"/>
</g>
<defs>
<clipPath id="clip0">
<rect width="96" height="96" fill="white"/>
</clipPath>
</defs>
</svg>
