<svg width="82" height="82" viewBox="0 0 82 82" fill="none" xmlns="http://www.w3.org/2000/svg">
<path d="M41 0C18.393 0 0 18.393 0 41C0 63.607 18.393 82 41 82C63.6088 82 82 63.607 82 41C82 18.393 63.6088 0 41 0ZM41 78.4348C20.3574 78.4348 3.56522 61.6426 3.56522 41C3.56522 20.3574 20.3574 3.56522 41 3.56522C61.6408 3.56522 78.4348 20.3574 78.4348 41C78.4348 61.6426 61.6408 78.4348 41 78.4348Z" fill="#006EB7"/>
<path d="M32.0873 33.8696C32.0873 30.9211 29.6879 28.5217 26.7394 28.5217C23.791 28.5217 21.3916 30.9211 21.3916 33.8696C21.3916 36.818 23.791 39.2174 26.7394 39.2174C29.6879 39.2174 32.0873 36.818 32.0873 33.8696ZM24.9568 33.8696C24.9568 32.8874 25.7572 32.087 26.7394 32.087C27.7216 32.087 28.522 32.8874 28.522 33.8696C28.522 34.8518 27.7216 35.6522 26.7394 35.6522C25.7572 35.6522 24.9568 34.8518 24.9568 33.8696Z" fill="#006EB7"/>
<path d="M55.2609 28.5217C52.3125 28.5217 49.9131 30.9211 49.9131 33.8696C49.9131 36.818 52.3125 39.2174 55.2609 39.2174C58.2093 39.2174 60.6087 36.818 60.6087 33.8696C60.6087 30.9211 58.2093 28.5217 55.2609 28.5217ZM55.2609 35.6522C54.2769 35.6522 53.4783 34.8518 53.4783 33.8696C53.4783 32.8874 54.2769 32.087 55.2609 32.087C56.2449 32.087 57.0435 32.8874 57.0435 33.8696C57.0435 34.8518 56.2449 35.6522 55.2609 35.6522Z" fill="#006EB7"/>
<path d="M41.0003 49.9131C34.3547 49.9131 28.0229 52.7278 23.6288 57.6371C22.9728 58.3715 23.0352 59.4981 23.7678 60.1541C24.5022 60.8119 25.6289 60.7477 26.2849 60.0151C30.0034 55.8598 35.3672 53.4783 41.0003 53.4783C46.6333 53.4783 51.9972 55.8598 55.7157 60.0151C56.0669 60.409 56.5553 60.6087 57.0438 60.6087C57.4662 60.6087 57.8941 60.4589 58.2328 60.1541C58.9654 59.4981 59.0278 58.3715 58.3718 57.6371C53.9777 52.7296 47.6476 49.9131 41.0003 49.9131Z" fill="#006EB7"/>
</svg>
