<svg width="88" height="88" viewBox="0 0 88 88" fill="none" xmlns="http://www.w3.org/2000/svg">
<g clip-path="url(#clip0)">
<path d="M25.6667 44.0002C21.6223 44.0002 18.3333 40.7112 18.3333 36.6668C18.3333 32.6225 21.6223 29.3335 25.6667 29.3335C29.711 29.3335 33 32.6225 33 36.6668C33 40.7112 29.711 44.0002 25.6667 44.0002Z" fill="#002B4F" fill-opacity="0.1"/>
<path d="M62.3333 44.0002C58.289 44.0002 55 40.7112 55 36.6668C55 32.6225 58.289 29.3335 62.3333 29.3335C66.3777 29.3335 69.6667 32.6225 69.6667 36.6668C69.6667 40.7112 66.3777 44.0002 62.3333 44.0002Z" fill="#002B4F" fill-opacity="0.1"/>
<path d="M63.4443 70.3742C62.5057 70.3742 61.567 70.0149 60.852 69.2999C51.5607 60.0085 36.4393 60.0085 27.148 69.2999C25.7143 70.7335 23.397 70.7335 21.9633 69.2999C20.5297 67.8662 20.5297 65.5489 21.9633 64.1152C34.111 51.9639 53.889 51.9639 66.0403 64.1152C67.474 65.5489 67.474 67.8662 66.0403 69.2999C65.3217 70.0149 64.383 70.3742 63.4443 70.3742Z" fill="#002B4F" fill-opacity="0.1"/>
<path d="M77 3.6665H11C4.93533 3.6665 0 8.60184 0 14.6665V73.3332C0 79.3978 4.93533 84.3332 11 84.3332H77C83.0647 84.3332 88 79.3978 88 73.3332V14.6665C88 8.60184 83.0647 3.6665 77 3.6665ZM77 76.9998H11C8.97967 76.9998 7.33333 75.3572 7.33333 73.3332V21.9998H80.6667V73.3332C80.6667 75.3572 79.0203 76.9998 77 76.9998Z" fill="#002B4F" fill-opacity="0.1"/>
</g>
<defs>
<clipPath id="clip0">
<rect width="88" height="88" fill="white"/>
</clipPath>
</defs>
</svg>
