<svg width="16" height="16" viewBox="0 0 16 16" fill="none" xmlns="http://www.w3.org/2000/svg">
<path d="M8.88394 8.00004L15.817 1.06698C16.0611 0.822882 16.0611 0.427133 15.817 0.18307C15.5729 -0.0609922 15.1771 -0.0610234 14.9331 0.18307L8 7.11613L1.06698 0.18307C0.822883 -0.0610234 0.427133 -0.0610234 0.18307 0.18307C-0.0609922 0.427164 -0.0610234 0.822914 0.18307 1.06698L7.1161 8L0.18307 14.9331C-0.0610234 15.1772 -0.0610234 15.5729 0.18307 15.817C0.305101 15.939 0.46507 16 0.625039 16C0.785007 16 0.944945 15.939 1.06701 15.817L8 8.88394L14.933 15.817C15.0551 15.939 15.215 16 15.375 16C15.535 16 15.6949 15.939 15.817 15.817C16.0611 15.5729 16.0611 15.1771 15.817 14.9331L8.88394 8.00004Z" fill="#66645A"/>
</svg>
