<svg width="60" height="60" viewBox="0 0 60 60" fill="none" xmlns="http://www.w3.org/2000/svg">
<path d="M20 43H18C17.4477 43 17 43.4478 17 44C17 44.5523 17.4477 45 18 45H20C20.5522 45 21 44.5523 21 44C21 43.4478 20.5522 43 20 43Z" fill="#006EB7"/>
<path d="M48 43H24C23.4477 43 23 43.4478 23 44C23 44.5523 23.4477 45 24 45H48C48.5522 45 49 44.5523 49 44C49 43.4478 48.5522 43 48 43Z" fill="#006EB7"/>
<path d="M20 37H18C17.4477 37 17 37.4477 17 38C17 38.5522 17.4477 39 18 39H20C20.5522 39 21 38.5522 21 38C21 37.4477 20.5522 37 20 37Z" fill="#006EB7"/>
<path d="M48 37H24C23.4477 37 23 37.4477 23 38C23 38.5522 23.4477 39 24 39H48C48.5522 39 49 38.5522 49 38C49 37.4477 48.5522 37 48 37Z" fill="#006EB7"/>
<path d="M20 31H18C17.4477 31 17 31.4478 17 32C17 32.5523 17.4477 33 18 33H20C20.5522 33 21 32.5523 21 32C21 31.4478 20.5522 31 20 31Z" fill="#006EB7"/>
<path d="M48 31H24C23.4477 31 23 31.4478 23 32C23 32.5523 23.4477 33 24 33H48C48.5522 33 49 32.5523 49 32C49 31.4478 48.5522 31 48 31Z" fill="#006EB7"/>
<path d="M20 25H18C17.4477 25 17 25.4477 17 26C17 26.5522 17.4477 27 18 27H20C20.5522 27 21 26.5522 21 26C21 25.4477 20.5522 25 20 25Z" fill="#006EB7"/>
<path d="M48 25H24C23.4477 25 23 25.4477 23 26C23 26.5522 23.4477 27 24 27H48C48.5522 27 49 26.5522 49 26C49 25.4477 48.5522 25 48 25Z" fill="#006EB7"/>
<path d="M20 19H18C17.4477 19 17 19.4477 17 20C17 20.5522 17.4477 21 18 21H20C20.5522 21 21 20.5522 21 20C21 19.4477 20.5522 19 20 19Z" fill="#006EB7"/>
<path d="M48 19H24C23.4477 19 23 19.4477 23 20C23 20.5522 23.4477 21 24 21H48C48.5522 21 49 20.5522 49 20C49 19.4477 48.5522 19 48 19Z" fill="#006EB7"/>
<path d="M54.987 14.937C54.982 14.8494 54.9649 14.7629 54.936 14.68C54.925 14.648 54.917 14.617 54.903 14.586C54.8544 14.4773 54.7866 14.378 54.703 14.293L40.703 0.293C40.618 0.209375 40.5188 0.141625 40.41 0.093C40.379 0.079 40.348 0.071 40.317 0.06C40.2334 0.03125 40.1463 0.01375 40.058 0.008C40.041 0.011 40.022 0 40 0H12C11.4478 0 11 0.44775 11 1V4H6C5.44775 4 5 4.44775 5 5V59C5 59.5522 5.44775 60 6 60H48C48.5523 60 49 59.5522 49 59V54H54C54.5523 54 55 53.5522 55 53V15C55 14.978 54.989 14.959 54.987 14.937ZM41 3.414L51.586 14H41V3.414ZM47 58H7V6H11V53C11 53.5522 11.4478 54 12 54H47V58ZM53 52H13V2H39V15C39 15.5522 39.4478 16 40 16H53V52Z" fill="#006EB7"/>
<path d="M24 8.99998H18C17.4477 8.99998 17 9.44773 17 9.99998V16C17 16.5522 17.4477 17 18 17H24C24.5522 17 25 16.5522 25 16V9.99998C25 9.44773 24.5522 8.99998 24 8.99998ZM23 15H19V11H23V15Z" fill="#006EB7"/>
</svg>
