<svg width="22" height="22" viewBox="0 0 22 22" fill="none" xmlns="http://www.w3.org/2000/svg">
<path d="M0.459053 4.08873C3.47847 6.64585 8.7766 11.1446 10.3338 12.5473C10.5428 12.7366 10.767 12.8329 10.9998 12.8329C11.2321 12.8329 11.4559 12.7375 11.6645 12.5491C13.223 11.145 18.5211 6.64585 21.5406 4.08873C21.7286 3.92984 21.7572 3.65054 21.6051 3.45628C21.2532 3.00738 20.7287 2.75 20.1665 2.75H1.83315C1.27099 2.75 0.746385 3.00738 0.3946 3.45632C0.242404 3.65054 0.271065 3.92984 0.459053 4.08873Z" fill="#008BDD"/>
<path d="M21.7342 6.35441C21.5717 6.27878 21.3806 6.30516 21.2454 6.42066C17.8969 9.25927 13.6233 12.8978 12.2788 14.1094C11.5241 14.7906 10.4767 14.7906 9.7203 14.1085C8.28712 12.8172 3.48803 8.73737 0.754617 6.42062C0.618535 6.30512 0.42698 6.27964 0.265848 6.35436C0.103855 6.4296 0 6.59164 0 6.77021V18.2966C0 19.3077 0.822207 20.1299 1.83335 20.1299H20.1667C21.1778 20.1299 22 19.3077 22 18.2966V6.77021C22 6.59164 21.8961 6.42917 21.7342 6.35441Z" fill="#008BDD"/>
</svg>
