<svg width="15" height="15" viewBox="0 0 15 15" fill="none" xmlns="http://www.w3.org/2000/svg">
<g clip-path="url(#clip0)">
<path d="M6.21132 8.78871C4.77959 7.35698 4.45632 5.92526 4.38339 5.35164C4.36301 5.19303 4.41759 5.03397 4.53106 4.92129L5.68968 3.76319C5.86011 3.59286 5.89036 3.32741 5.76261 3.12311L3.91787 0.258624C3.77654 0.0323948 3.48634 -0.0492534 3.24778 0.0700891L0.286317 1.46483C0.0934009 1.55982 -0.0200696 1.76479 0.00183387 1.97871C0.157006 3.45285 0.799679 7.07664 4.36089 10.6381C7.92209 14.1996 11.5454 14.842 13.0203 14.9972C13.2342 15.0191 13.4392 14.9056 13.5342 14.7127L14.9289 11.7512C15.0478 11.5132 14.9667 11.2237 14.7414 11.0822L11.8769 9.23793C11.6727 9.11005 11.4073 9.14008 11.2368 9.31035L10.0787 10.469C9.96605 10.5824 9.80699 10.637 9.64839 10.6166C9.07477 10.5437 7.64304 10.2204 6.21132 8.78871Z" fill="white"/>
<path d="M11.8966 8.01725C11.6109 8.01725 11.3793 7.78568 11.3793 7.50001C11.3769 5.35853 9.64151 3.62312 7.50003 3.6207C7.21436 3.6207 6.98279 3.38912 6.98279 3.10345C6.98279 2.81779 7.21436 2.58621 7.50003 2.58621C10.2126 2.58921 12.4108 4.78744 12.4138 7.50001C12.4138 7.78568 12.1822 8.01725 11.8966 8.01725Z" fill="white"/>
<path d="M14.4828 8.01724C14.1971 8.01724 13.9656 7.78566 13.9656 7.5C13.9616 3.93085 11.0692 1.03847 7.50003 1.03448C7.21437 1.03448 6.98279 0.802906 6.98279 0.517241C6.98279 0.231577 7.21437 0 7.50003 0C11.6403 0.004561 14.9955 3.35975 15 7.5C15 7.63718 14.9456 7.76874 14.8486 7.86574C14.7515 7.96275 14.62 8.01724 14.4828 8.01724Z" fill="white"/>
</g>
<defs>
<clipPath id="clip0">
<rect width="15" height="15" fill="white"/>
</clipPath>
</defs>
</svg>
