<svg width="19" height="19" viewBox="0 0 19 19" fill="none" xmlns="http://www.w3.org/2000/svg">
<path d="M13.6169 13.1803L12.9983 14.1082C12.8748 14.2934 12.7115 14.4514 12.4963 14.5083C11.7914 14.6946 9.91988 14.7787 7.0706 11.9294C4.22133 9.08015 4.30542 7.20865 4.49169 6.50372C4.54855 6.28851 4.70659 6.12521 4.8918 6.00174L5.8197 5.38314C6.51054 4.92258 6.69722 3.98919 6.23666 3.29834L4.48417 0.669609C4.08217 0.0666126 3.3072 -0.163765 2.64108 0.121714L1.85053 0.460522C1.24997 0.717902 0.760089 1.17982 0.467888 1.76422C0.223764 2.25247 0.0345503 2.76662 0.00891371 3.3119C-0.0718772 5.03027 0.304918 9.26384 5.02055 13.9795C9.73619 18.6951 13.9697 19.0719 15.6881 18.9911C16.2334 18.9654 16.7475 18.7762 17.2358 18.5321C17.8202 18.2399 18.2821 17.75 18.5395 17.1495L18.8783 16.3589C19.1638 15.6928 18.9334 14.9178 18.3304 14.5158L15.7017 12.7633C15.0108 12.3028 14.0774 12.4895 13.6169 13.1803Z" fill="#008BDD"/>
</svg>
