<svg width="22" height="22" viewBox="0 0 22 22" fill="none" xmlns="http://www.w3.org/2000/svg">
<path d="M11 0C6.38 0 2.62109 3.75891 2.62109 8.37891C2.62109 10.2072 3.19859 11.9445 4.29258 13.402L10.4835 21.7401C10.499 21.7603 10.5226 21.768 10.5398 21.7861C10.8492 22.1173 11.2956 22.034 11.5161 21.7401C13.2988 19.3613 16.5666 14.9188 17.823 13.243C17.823 13.243 17.8234 13.2417 17.8239 13.2408L17.8316 13.2305C18.8439 11.8082 19.3789 10.1307 19.3789 8.37891C19.3789 3.75891 15.62 0 11 0ZM11 12.8992C8.51254 12.8992 6.47969 10.8664 6.47969 8.37891C6.47969 5.89145 8.51254 3.85859 11 3.85859C13.4875 3.85859 15.5203 5.89145 15.5203 8.37891C15.5203 10.8664 13.4875 12.8992 11 12.8992Z" fill="#008BDD"/>
</svg>
